<svg width="100" height="100" viewBox="0 0 100 100" xmlns="http://www.w3.org/2000/svg">
  <!-- Central root/trunk -->
  <circle cx="50" cy="50" r="12" fill="#2ecc71"/>
  
  <!-- Tendrils extending outward -->
  <path d="M50 50 C40 40, 30 60, 20 50 Q15 45, 10 50 
           M50 50 C60 40, 70 60, 80 50 Q85 45, 90 50" 
        stroke="#3498db" stroke-width="2" fill="none"/>
  
  <!-- Brain-like shape around the tendrils -->
  <path d="M10 50 Q15 30, 30 30 Q45 30, 50 15 Q55 30, 70 30 Q85 30, 90 50 Q85 70, 70 70 
           Q55 70, 50 85 Q45 70, 30 70 Q15 70, 10 50Z" 
        fill="none" stroke="#2ecc71" stroke-width="2"/>
</svg>