<svg width="100" height="100" xmlns="http://www.w3.org/2000/svg" viewBox="0 0 100 100">
  <!-- Root/Trunk in the center -->
  <circle cx="50" cy="50" r="10" fill="#3498db"/> <!-- Central root circle -->

  <!-- Tendrils extending outward -->
  <path d="M50 50 Q45 35, 40 50 Q35 65, 30 50 Q25 35, 20 50 Q15 65, 10 50" stroke="#3498db" stroke-width="2" fill="none"/>
  <path d="M50 50 Q55 35, 60 50 Q65 65, 70 50 Q75 35, 80 50 Q85 65, 90 50" stroke="#3498db" stroke-width="2" fill="none"/>
  
  <!-- Brain/World shape around the tendrils -->
  <path d="M10 50 Q15 30, 30 30 Q45 30, 50 10 Q55 30, 70 30 Q85 30, 90 50 Q85 70, 70 70 Q55 70, 50 90 Q45 70, 30 70 Q15 70, 10 50Z" fill="#2ecc71" opacity="0.5"/>

</svg>