<svg width="100" height="100" viewBox="0 0 100 100" xmlns="http://www.w3.org/2000/svg">
  <!-- Central Triangle -->
  <polygon points="50,20 30,60 70,60" fill="none" stroke="#3498db" stroke-width="2"/>
  
  <!-- Central Circle -->
  <circle cx="50" cy="40" r="8" fill="none" stroke="#e74c3c" stroke-width="2"/>
  
  <!-- Surrounding Hexagon -->
  <polygon points="50,10 70,30 70,70 50,90 30,70 30,30" fill="none" stroke="#2ecc71" stroke-width="2"/>
  
  <!-- Inner Square -->
  <rect x="40" y="40" width="20" height="20" fill="none" stroke="#f39c12" stroke-width="2"/>
  
  <!-- Outer Circle with Dots -->
  <circle cx="50" cy="50" r="40" fill="none" stroke="#8e44ad" stroke-width="1.5"/>
  
  <!-- Dots -->
  <circle cx="50" cy="10" r="2" fill="#3498db"/>
  <circle cx="90" cy="50" r="2" fill="#3498db"/>
  <circle cx="50" cy="90" r="2" fill="#3498db"/>
  <circle cx="10" cy="50" r="2" fill="#3498db"/>
  
  <!-- Triple Dot Array -->
  <circle cx="30" cy="30" r="2" fill="#e74c3c"/>
  <circle cx="34" cy="34" r="2" fill="#e74c3c"/>
  <circle cx="38" cy="38" r="2" fill="#e74c3c"/>
  
  <!-- Double Dot Array -->
  <circle cx="70" cy="30" r="2" fill="#e74c3c"/>
  <circle cx="74" cy="34" r="2" fill="#e74c3c"/>
  
  <!-- Single Dot Array -->
  <circle cx="50" cy="60" r="2" fill="#e74c3c"/>
  
  <!-- Runes (abstract shapes) -->
  <path d="M30 70 L40 80 L50 70" stroke="#f1c40f" stroke-width="2" fill="none"/>
  <path d="M70 70 L60 80 L50 70" stroke="#f1c40f" stroke-width="2" fill="none"/>
</svg>